<svg xmlns="http://www.w3.org/2000/svg" height="1200" width="1600" version="1.1" xmlns:xlink="http://www.w3.org/1999/xlink" xmlns:svgjs="http://svgjs.com/svgjs"><rect fill="#212121" width="1600" height="1200"></rect><g><path d="M1177.35 312.05C1291.14 297.42 1385.97 172.53 1341.73 165.65 1299.16 159.04 1213.22 279.97 1277.04 294.86 1317.75 304.38 1389.41 259.78 1389.41 259.78" stroke="#ffffff" stroke-width="4" stroke-linecap="round" stroke-linejoin="round" opacity="1" fill="none"></path><path d="M1425.02 247.88L1326.04 266.39 1369.58 285.43 1370.99 332.85 1425.02 247.88Z" fill="#303030" opacity="0.2" stroke-width="4" stroke="none"></path><path d="M1420.35 235.28L1321.37 253.79 1364.91 272.83 1366.32 320.25 1420.35 235.28Z" fill="#ffffff" opacity="1" stroke-width="4" stroke="none"></path></g><g><path d="M1037.65 601.32L926.68 1006.97" stroke="#ffffff" stroke-width="4" stroke-linecap="round" stroke-linejoin="round" opacity="1" fill="none"></path><path d="M717.09 1006.97L828.26 600.51" stroke="#ffffff" stroke-width="4" stroke-linecap="round" stroke-linejoin="round" opacity="1" fill="none"></path><path d="M1125.51 1006.97L1027.91 558.97C1015.58 502.56 958.7 456.77 900.89 456.77 843.07 456.77 806.08 502.56 818.41 558.97L916.01 1007.27" stroke="#ffffff" stroke-width="4" stroke-linecap="round" stroke-linejoin="round" opacity="1" fill="none"></path><path d="M1088 838.46L880.58 838.46" stroke="#ffffff" stroke-width="4" stroke-linecap="round" stroke-linejoin="round" opacity="1" fill="none"></path><path d="M1113.7 957.44H906.27" stroke="#ffffff" stroke-width="4" stroke-linecap="round" stroke-linejoin="round" opacity="1" fill="none"></path><path d="M1062.31 719.59H854.88" stroke="#ffffff" stroke-width="4" stroke-linecap="round" stroke-linejoin="round" opacity="1" fill="none"></path><path d="M1036.51 600.72H829.09" stroke="#ffffff" stroke-width="4" stroke-linecap="round" stroke-linejoin="round" opacity="1" fill="none"></path></g><g><path d="M748.16 413.76C813.02 376.63 835.49 293.97 798.36 229.12 761.23 164.26 678.57 141.79 613.71 178.92 548.86 216.05 526.39 298.71 563.52 363.57 600.65 428.42 683.31 450.89 748.16 413.76Z" fill="#6bc9e6" opacity="1" stroke-width="4" stroke="none"></path><path d="M692.34 362.12L642.62 275.27C634.35 260.82 642.33 243.72 657.24 238.02 669 233.51 682.43 237.93 688.7 248.88" stroke="#ffffff" stroke-width="4" stroke-linecap="round" stroke-linejoin="round" opacity="1" fill="none"></path><path d="M738.6 308.17L750.44 328.85 674.39 372.39" stroke="#ffffff" stroke-width="4" stroke-linecap="round" stroke-linejoin="round" opacity="1" fill="none"></path><path d="M657.44 344.54L696.07 322.42" stroke="#ffffff" stroke-width="4" stroke-linecap="round" stroke-linejoin="round" opacity="1" fill="none"></path></g><g><path d="M141.37 621.74L300.74 680.65C300.94 680.65 301.15 680.65 300.94 680.45L246.47 519.46C246.47 519.26 246.27 519.26 246.07 519.46L225.7 566.06C225.7 566.27 225.49 566.27 225.29 566.06L188.37 528.54H188.17L151.66 564.05V564.25L188.37 601.97C188.37 602.18 188.37 602.18 188.37 602.38L141.57 621.34C141.37 621.34 141.37 621.74 141.37 621.74Z" fill="#ffffff" opacity="1" stroke-width="4" stroke="none"></path></g><g><path d="M515.86 488.46C414.31 490.95 334.25 572.89 336.56 671.52 337.83 725.32 364.18 775.87 407.92 808.75 436.31 829.92 452.94 862.55 453.19 897.17L462.91 917.09H571.36L587.48 897.17C587.48 862.8 603.85 830.17 631.98 809.25 712.56 749.23 728.16 637.15 666.52 558.45 630.71 513.12 574.69 486.97 515.86 488.46Z" fill="#f6b93b" opacity="1" stroke-width="4" stroke="none"></path><path d="M453.19 897.42V942.99C453.19 979.11 483.12 1008.25 520.21 1008.25 557.3 1008.25 587.22 979.11 587.22 942.99V897.42H453.19Z" fill="#e15741" opacity="1" stroke-width="4" stroke="none"></path><path d="M453.19 897.17H587.48" stroke="#211e1d" stroke-width="4" stroke-linecap="round" stroke-linejoin="round" opacity="1" fill="none"></path><path d="M453.19 933.28H587.22" stroke="#211e1d" stroke-width="4" stroke-linecap="round" stroke-linejoin="round" opacity="1" fill="none"></path><path d="M497.7 897.17V845.11C497.7 810.24 483.63 776.62 458.31 751.97 439.12 733.29 428.64 708.13 428.64 681.73 428.64 663.05 444.24 648.11 463.17 648.11 482.35 648.11 497.7 663.3 497.7 681.73V701.16C497.7 713.11 507.67 722.83 519.95 722.83 532.23 722.83 542.2 713.11 542.2 701.16V681.73C542.2 663.05 557.81 648.11 576.74 648.11H577.25C596.43 648.11 611.78 663.3 611.78 681.73 611.78 708.13 601.04 733.53 581.85 752.21 556.53 777.12 542.2 810.49 542.2 845.61L542.46 897.42" stroke="#000000" stroke-width="4" stroke-linecap="round" stroke-linejoin="round" opacity="1" fill="none"></path></g><g><path d="M1441.61 760.26L1291.56 815.72C1291.37 815.72 1291.18 815.72 1291.37 815.53L1342.65 663.96C1342.65 663.77 1342.84 663.77 1343.03 663.96L1362.22 707.83C1362.22 708.02 1362.41 708.02 1362.6 707.83L1397.35 672.5H1397.54L1431.92 705.93V706.12L1397.35 741.64C1397.35 741.83 1397.35 741.83 1397.35 742.02L1441.42 759.88C1441.61 759.88 1441.61 760.26 1441.61 760.26Z" fill="#ffffff" opacity="1" stroke-width="4" stroke="none"></path></g><g><path d="M1000.38 977.69L972.31 921.05 972.11 917.03C971.92 911.04 971.43 904.56 971.03 898.38L972.8 895.83 1062.72 897.59V898.38C1062.03 914.87 1060.75 929.99 1058.79 944.51V944.61L1028.16 977.69H1000.38Z" fill="#f5cba8" opacity="1" stroke-width="4" stroke="none"></path><path d="M1159.01 984.97L1134.86 921.55C1134.28 915.76 1133.1 908.01 1131.33 897.79L1224.78 897.2C1224.68 912.33 1223.7 929.21 1221.64 945.11V945.21L1187.87 985.06 1159.01 984.97Z" fill="#f5cba8" opacity="1" stroke-width="4" stroke="none"></path><path d="M886.32 365.36C886.32 358.88 886.52 352.01 886.91 344.94 886.42 344.85 873.26 341.21 873.17 313.63H873.07C871.3 313.63 866.39 313.04 865.31 307.54 863.84 300.38 864.04 290.76 867.87 285.56 869.63 283.3 871.69 282.12 874.15 281.83 874.25 275.05 877.98 270.24 883.18 270.24 884.45 270.24 885.73 270.44 886.91 270.93 887.99 264.94 892.21 263.67 895.65 263.67 898.59 263.67 901.34 264.55 902.42 264.94 891.92 238.73 890.05 229.6 894.76 225.87 895.25 225.48 895.84 225.29 896.43 225.29 903.99 225.29 918.91 255.32 923.52 266.22 926.27 272.8 937.36 310.1 948.06 346.12L948.85 348.67 947.67 349.17 888.38 365.46 886.32 365.36Z" fill="#f5cba8" opacity="1" stroke-width="4" stroke="none"></path><path d="M1218.3 824.86C1215.46 810.33 1211.92 797.86 1208.39 785.89L1208.19 785.39C1198.18 750.94 1188.76 718.45 1196.71 644.24 1201.03 603.7 1197 561.49 1185.03 522.22 1176.09 492.78 1165.49 474.42 1164.31 472.36L1164.22 472.26H1111.4C1111.31 472.16 1111.31 472.16 1111.21 472.16L1033.76 472.16V472.36C1030.91 479.43 965.73 647.67 965.73 762.92 965.73 800.02 968.19 844.39 970.15 880.12V880.81C970.35 884.34 970.54 887.78 970.74 891.21 970.84 893.67 970.84 896.12 971.03 898.48H1062.52C1062.72 898.48 1062.81 898.38 1062.81 898.18 1064.19 861.18 1061.83 828.59 1060.36 809.15 1056.63 760.56 1071.35 728.56 1086.96 694.6 1088.73 690.67 1090.59 686.74 1092.36 682.72 1095.01 710.6 1097.76 734.35 1100.12 748.19 1104.04 770.87 1110.42 799.63 1116.02 824.76 1122.01 851.56 1127.7 877.37 1131.43 898.38L1224.88 898.67V898.48C1225.17 874.33 1222.92 849.49 1218.3 824.86Z" fill="#f6b93b" opacity="1" stroke-width="4" stroke="none"></path><path d="M1066.35 745.25L1077.15 632.26C1078.81 614.5 1086.37 615.67 1086.37 615.67 1097.86 592.41 1086.37 615.67 1086.37 615.67 1087.26 615.67 1089.02 651.6 1089.02 651.6 1089.02 651.6 1090.99 655.82 1092.36 678.4 1092.36 678.4 1096.78 668.78 1091.58 684.48L1087.06 694.4C1079.6 710.4 1071.94 726.99 1066.74 745.25H1066.35Z" fill="#4f442e" opacity="0.2" stroke-width="4" stroke="none"></path><path d="M919.6 1009.3C919.3 1004.2 920.58 998.8 922.84 994.38 922.84 994.28 922.93 994.18 923.03 994.09L923.13 993.99 1049.07 993.5C1049.27 993.5 1049.37 993.69 1049.37 993.89 1047.99 998.99 1046.23 1004.59 1044.75 1009.4L919.6 1009.3Z" fill="#315e6c" opacity="1" stroke-width="4" stroke="none"></path><path d="M922.93 994.49C922.84 994.49 922.74 994.49 922.93 994.49 925.49 989.58 929.31 985.56 933.54 982.61 934.12 982.12 937.07 980.25 937.85 979.67 953.76 969.06 973.49 955.91 972.7 930.68V930.19 929.8C972.6 926.95 972.51 924.11 972.31 920.87V920.67H996.95C998.32 920.67 999.7 920.87 1001.17 921.26 1004.8 922.34 1007.75 924.79 1009.51 928.13 1011.28 931.57 1011.67 935.4 1010.49 938.93L1002.45 964.65H1029.54C1034.25 952.38 1045.73 944.33 1058.89 944.03H1059.08V944.23C1057.02 959.94 1049.86 991.35 1049.17 994.19 1049.17 994.29 1049.07 994.39 1048.88 994.39L925.49 994.49H922.93Z" fill="#6bc9e6" opacity="1" stroke-width="4" stroke="none"></path><path d="M1082.45 1009.51V1009.31C1082.15 1004.11 1083.23 999 1085.59 994.49L1086.96 993.11 1212.02 988.99C1212.12 988.99 1212.12 994 1212.12 994.1 1210.74 999.3 1209.07 1004.6 1207.5 1009.41L1082.45 1009.51Z" fill="#315e6c" opacity="1" stroke-width="4" stroke="none"></path><path d="M1085.59 994.49C1088.73 986.83 1099.92 980.25 1100.7 979.67 1116.61 969.06 1136.34 955.91 1135.55 930.68 1135.45 927.15 1135.26 924.2 1134.86 921.36V921.16H1160.88C1162.25 921.16 1163.63 921.36 1165.1 921.75 1168.73 922.83 1171.68 925.28 1173.44 928.62 1175.21 932.06 1175.6 935.89 1174.42 939.42L1166.37 965.14H1193.47C1198.08 953.36 1209.17 945.31 1221.74 944.62H1221.93V944.82C1219.87 960.13 1212.9 990.46 1212.12 994 1212.12 994.19 1211.92 994.39 1211.73 994.39L1085.78 994.49H1085.59Z" fill="#6bc9e6" opacity="1" stroke-width="4" stroke="none"></path><path d="M1208.98 374.88L1208.19 373.31C1204.36 365.75 1195.43 350.93 1178.35 338.17 1178.25 338.07 1178.15 338.07 1178.06 338.07 1177.96 337.97 1177.76 337.78 1177.66 337.68 1173.44 334.44 1162.06 327.96 1145.96 324.33H1145.86L1090.2 422.88 1041.42 325.9C1041.32 325.7 1041.12 325.7 1041.02 325.7L1037.49 327.08C1030.13 330.02 1025.71 333.26 1017.46 339.64 998.62 354.07 984.29 366.64 970.15 379.3 966.62 382.44 963.18 385.48 959.84 388.43 959.25 386.07 955.13 369.58 948.95 348.58L948.85 348.38 886.32 365.17V365.36C886.12 402.37 891.42 430.93 902.03 450.17 911.65 467.65 925.78 477.07 943.06 477.46H944.73C979.97 477.46 1009.12 454.88 1023.35 441.34L1027.28 472.95C1027.18 473.54 1014.91 519.77 997.73 579.55L997.64 579.84H997.93C998.42 579.84 1043.87 578.96 1083.43 546.18 1129.56 585.44 1194.25 585.93 1197 585.93H1197.3V585.34C1195.23 561.39 1190.72 540.58 1185.61 523.4 1202.69 521.93 1215.75 516.92 1224.58 508.48 1246.97 486.89 1241.37 439.47 1208.98 374.88Z" fill="#f6b93b" opacity="1" stroke-width="4" stroke="none"></path><path d="M1191.8 549.61C1135.36 532.73 1134.37 520.06 1134.18 519.77L1177.37 524.38 1185.61 523.4 1192.09 549.41 1192.19 549.71 1191.8 549.61Z" fill="#4f442e" opacity="0.2" stroke-width="4" stroke="none"></path><path d="M1040.53 326L1040.92 325.8C1047.01 323.25 1053.19 321.97 1059.87 321.88 1059.87 321.88 1060.07 321.88 1060.36 321.88 1066.25 321.58 1081.86 320.8 1098.84 320.8 1110.62 320.8 1121.32 321.19 1130.55 321.88 1135.94 322.27 1141.05 323.15 1145.96 324.33L1146.35 324.43 1090.3 423.77 1040.53 326Z" fill="#e15741" opacity="1" stroke-width="4" stroke="none"></path><path d="M1019.92 409.83L1020.31 409.93 1023.35 441.44 1023.16 441.63C1016.38 448.01 1009.22 453.71 1001.86 458.62L1001.07 459.11 1019.92 409.83Z" fill="#4f442e" opacity="0.2" stroke-width="4" stroke="none"></path><path d="M1113.07 320.99H1071.35L1084.8 340.53 1075.48 394.52 1090.3 423.77 1108.46 391.47 1099.62 340.53 1113.07 320.99Z" fill="#6bc9e6" opacity="1" stroke-width="4" stroke="none"></path><path d="M1060.36 315.5L1060.85 306.96C1058.99 307.15 1057.22 307.35 1055.35 307.35 1048.19 307.35 1038.47 305.58 1032.48 297.04 1025.32 286.73 1026.4 273.68 1028.65 261.21 1029.34 257.09 1029.64 251.3 1029.83 246.29 1030.32 234.71 1030.91 218.9 1036.9 209.87 1047.01 194.66 1059.58 195.15 1083.43 195.15 1095.7 195.15 1107.09 199.67 1115.63 207.91 1123.97 215.96 1128.68 226.66 1128.88 237.95 1129.07 250.91 1133.39 275.35 1132.12 299.69L1131.82 305.39C1131.63 309.02 1131.43 312.35 1131.33 315.3V315.5H1060.36Z" fill="#f5cba8" opacity="1" stroke-width="4" stroke="none"></path><path d="M1060.85 306.96L1061.83 306.86C1070.77 305.97 1078.91 303.42 1087.35 300.38L1087.55 300.77C1079.01 306.27 1069.98 311.18 1060.75 315.5L1060.36 315.79 1060.85 306.96Z" fill="#563d29" opacity="0.2" stroke-width="4" stroke="none"></path><path d="M1091.08 323.54L1076.07 340.72C1075.77 341.02 1075.18 341.02 1074.99 340.72L1060.16 322.66C1060.07 322.56 1059.97 322.37 1059.97 322.17L1060.36 315.79C1060.36 315.4 1060.75 315.1 1061.05 315.1H1131.43V315.3C1131.33 317.56 1131.23 319.62 1131.13 321.39L1131.04 322.86C1131.04 323.05 1130.94 323.25 1130.74 323.35L1110.13 341.31C1109.83 341.61 1109.34 341.51 1109.15 341.31L1092.16 323.54C1091.87 323.25 1091.38 323.25 1091.08 323.54Z" fill="#e15741" opacity="1" stroke-width="4" stroke="none"></path><path d="M1098.94 290.07L1098.74 289.88 1098.94 289.78C1098.94 289.78 1098.94 289.78 1099.53 289.38 1101.39 288.21 1107.09 284.67 1112.09 279.86 1117.69 274.46 1123.67 266.32 1120.44 258.56 1117.69 252.18 1112.48 248.94 1104.93 248.94 1097.86 248.94 1090.4 251.89 1086.67 253.65 1086.47 253.75 1086.37 253.75 1086.37 253.75L1086.18 253.85 1086.08 253.65C1081.47 245.51 1080.68 234.51 1078.81 225.1 1079.01 224.89 1074.59 225.09 1070.67 225.09 1041.42 225.09 1036.31 210.95 1036.31 210.76 1036.51 210.46 1036.8 209.97 1036.9 209.87 1047.01 194.66 1065.66 186.32 1089.51 186.32 1101.78 186.32 1113.17 190.83 1121.71 199.08 1130.05 207.22 1134.77 217.92 1134.96 229.11 1135.16 241.48 1133.59 272.01 1132.31 296.65L1132.12 300.48H1129.96C1129.96 300.48 1109.24 300.38 1098.94 290.07Z" fill="#191919" opacity="1" stroke-width="4" stroke="none"></path><path d="M1037.68 252.48C1035.92 252.48 1034.45 251 1034.45 249.24 1034.45 247.47 1035.92 246 1037.68 246 1039.45 246 1040.92 247.47 1040.92 249.24 1040.92 251 1039.45 252.48 1037.68 252.48Z" fill="#171314" opacity="1" stroke-width="4" stroke="none"></path><path d="M1060.36 254.14C1062.15 254.14 1063.6 252.69 1063.6 250.91 1063.6 249.12 1062.15 247.67 1060.36 247.67 1058.57 247.67 1057.12 249.12 1057.12 250.91 1057.12 252.69 1058.57 254.14 1060.36 254.14Z" fill="#171314" opacity="1" stroke-width="4" stroke="none"></path><path d="M1026.1 333.36L1022.57 371.25 1044.16 367.32 1035.33 395.79 1081.47 439.96 1083.43 545.98" stroke="#4f442e" stroke-width="4" stroke-linecap="round" stroke-linejoin="round" opacity="1" fill="none"></path><path d="M1160.39 329.24L1160.98 374.2 1138.4 373.21 1149.2 400.7 1083.43 463.13" stroke="#4f442e" stroke-width="4" stroke-linecap="round" stroke-linejoin="round" opacity="1" fill="none"></path><path d="M1090.3 423.28L1081.07 440.36" stroke="#4f442e" stroke-width="4" stroke-linecap="round" stroke-linejoin="round" opacity="1" fill="none"></path><path d="M1060.85 306.96C1065.56 305.48 1071.16 305.29 1076.56 303.91" stroke="#563d29" stroke-width="4" stroke-linecap="round" stroke-linejoin="round" opacity="1" fill="none"></path><path d="M1104.04 264.26L1093.24 269.16" stroke="#563d29" stroke-width="4" stroke-linecap="round" stroke-linejoin="round" opacity="1" fill="none"></path><path d="M1047.21 276.43C1051.13 277.31 1055.26 275.35 1057.12 271.81" stroke="#563d29" stroke-width="4" stroke-linecap="round" stroke-linejoin="round" opacity="1" fill="none"></path><path d="M1046.03 255.91C1044.75 259.25 1043.77 261.7 1047.11 263.08" stroke="#563d29" stroke-width="4" stroke-linecap="round" stroke-linejoin="round" opacity="1" fill="none"></path><path d="M1023.35 441.44L1021.39 421.31" stroke="#4f442e" stroke-width="4" stroke-linecap="round" stroke-linejoin="round" opacity="1" fill="none"></path><path d="M959.84 388.53L957 400.41" stroke="#4f442e" stroke-width="4" stroke-linecap="round" stroke-linejoin="round" opacity="1" fill="none"></path><path d="M1086.37 612.63C1088.34 637.07 1090.2 660.73 1092.36 682.72" stroke="#4f442e" stroke-width="4" stroke-linecap="round" stroke-linejoin="round" opacity="1" fill="none"></path><path d="M997.93 579.75C997.93 579.75 1043.18 579.35 1083.43 545.98 1130.55 586.23 1197.1 585.83 1197.1 585.83" stroke="#4f442e" stroke-width="4" stroke-linecap="round" stroke-linejoin="round" opacity="1" fill="none"></path><path d="M1198.47 897.89C1194.35 854.21 1176.68 793.35 1168.83 745.25 1160.98 697.15 1165.98 606.15 1163.92 584.95" stroke="#4f442e" stroke-width="4" stroke-linecap="round" stroke-linejoin="round" opacity="1" fill="none"></path><path d="M1124.4 960.85L1136.44 969.05" stroke="#315e6c" stroke-width="4" stroke-linecap="round" stroke-linejoin="round" opacity="1" fill="none"></path><path d="M961.81 961.17L972.51 969.05" stroke="#315e6c" stroke-width="4" stroke-linecap="round" stroke-linejoin="round" opacity="1" fill="none"></path><path d="M1060.07 322.37L1075.48 341.12 1091.48 322.66 1109.64 341.51 1130.84 323.05" stroke="#000000" stroke-width="4" stroke-linecap="round" stroke-linejoin="round" opacity="1" fill="none"></path><path d="M873.36 313.34C876.9 311.57 879.35 308.33 880.23 304.5" stroke="#563d29" stroke-width="4" stroke-linecap="round" stroke-linejoin="round" opacity="1" fill="none"></path><path d="M874.34 282.91C874.34 291.74 876.6 306.86 886.12 304.5 891.33 303.23 892.7 297.53 893 293.9" stroke="#563d29" stroke-width="4" stroke-linecap="round" stroke-linejoin="round" opacity="1" fill="none"></path><path d="M887.11 271.13C887.6 275.05 888.38 278.98 889.26 282.91" stroke="#563d29" stroke-width="4" stroke-linecap="round" stroke-linejoin="round" opacity="1" fill="none"></path><path d="M932.26 296.65C921.85 289.09 893.98 278 889.07 283.89 884.16 289.78 907.72 305.48 907.72 305.48 907.72 305.48 896.92 323.15 899.87 336.89" stroke="#563d29" stroke-width="4" stroke-linecap="round" stroke-linejoin="round" opacity="1" fill="none"></path><path d="M1026.49 542.15C1025.22 542.15 1024.24 541.66 1023.75 540.78 1021.98 537.64 1025.32 530.08 1026.89 527.03 1025.12 528.51 1015.89 535.67 1008.73 535.67 1005.1 535.67 1002.54 533.81 1001.07 530.27 1001.07 530.27 1001.07 530.27 1000.97 530.27 1000.38 530.27 996.85 530.08 994.69 527.33 993.12 525.36 992.63 522.62 993.32 519.28 992.92 519.08 992.33 518.4 991.75 517.41 990.47 515.35 989.1 510.84 993.41 502.79 1000.19 490.42 1023.55 468.82 1059.97 460.19 1079.6 455.57 1103.65 453.71 1120.34 452.82H1120.53L1115.82 515.16C1103.16 511.72 1094.72 508.78 1093.83 508.48 1084.51 514.27 1073.81 517.32 1062.91 517.32 1061.93 517.32 1061.05 517.32 1060.07 517.22 1059.97 517.32 1059.58 517.71 1059.08 518.2 1037.78 538.03 1029.54 542.15 1026.49 542.15Z" fill="#f5cba8" opacity="1" stroke-width="4" stroke="none"></path><path d="M1000.97 530.27C1016.68 515.55 1044.16 494.93 1044.16 494.93" stroke="#563d29" stroke-width="4" stroke-linecap="round" stroke-linejoin="round" opacity="1" fill="none"></path><path d="M993.12 519.48C1000.97 509.66 1022.57 491.99 1035.33 484.14" stroke="#563d29" stroke-width="4" stroke-linecap="round" stroke-linejoin="round" opacity="1" fill="none"></path><path d="M1026.89 527.03L1051.43 505.63" stroke="#563d29" stroke-width="4" stroke-linecap="round" stroke-linejoin="round" opacity="1" fill="none"></path><path d="M1144.78 503.97C1149.5 503.97 1153.32 500.15 1153.32 495.43 1153.32 490.71 1149.5 486.89 1144.78 486.89 1140.07 486.89 1136.24 490.71 1136.24 495.43 1136.24 500.15 1140.07 503.97 1144.78 503.97Z" fill="#fdf2db" opacity="1" stroke-width="4" stroke="none"></path><path d="M1150.87 428.28L1159.99 451.74" stroke="#4f442e" stroke-width="4" stroke-linecap="round" stroke-linejoin="round" opacity="1" fill="none"></path><path d="M1186.01 523.3C1161.86 525.46 1134.47 519.97 1115.82 515.06" stroke="#4f442e" stroke-width="4" stroke-linecap="round" stroke-linejoin="round" opacity="1" fill="none"></path><path d="M1120.73 452.73C1143.31 451.74 1157.05 451.74 1178.64 451.74" stroke="#4f442e" stroke-width="4" stroke-linecap="round" stroke-linejoin="round" opacity="1" fill="none"></path><path d="M902.42 264.94C904.77 269.16 907.92 281.34 908.8 285.26" stroke="#563d29" stroke-width="4" stroke-linecap="round" stroke-linejoin="round" opacity="1" fill="none"></path></g><g><path d="M386.79 539.82C426.29 554.94 470.55 535.17 485.67 495.67 500.78 456.17 481.01 411.9 441.51 396.79 402.01 381.68 357.74 401.44 342.63 440.95 327.52 480.45 347.29 524.71 386.79 539.82Z" fill="#6bc9e6" opacity="1" stroke-width="4" stroke="none"></path><path d="M398.35 428.28L413.97 468.77 452.63 449.05" stroke="#ffffff" stroke-width="4" stroke-linecap="round" stroke-linejoin="round" opacity="1" fill="none"></path><path d="M413.97 468.77L399.97 505.36" stroke="#ffffff" stroke-width="4" stroke-linecap="round" stroke-linejoin="round" opacity="1" fill="none"></path><path d="M393.56 473.28L426.16 485.75" stroke="#ffffff" stroke-width="4" stroke-linecap="round" stroke-linejoin="round" opacity="1" fill="none"></path></g><g><path d="M747.39 519.08L736.08 501.8 753.64 511.07 759.68 480.01 766.17 513.15 793.96 499.55 773.7 523.39 798.96 548.09 768.04 536.85 765.68 571.38 754.85 540.04 727.51 555.87 746.63 529.6 718.97 520.78 747.39 519.08Z" fill="#ffffff" opacity="1" stroke-width="4" stroke="none"></path></g></svg>